<svg xmlns="http://www.w3.org/2000/svg" viewBox="0 0 64 64" role="img" aria-label="Sudoku favicon">
  <rect width="64" height="64" rx="10" fill="#f8fafc"/>
  <rect x="5" y="5" width="54" height="54" fill="#ffffff" stroke="#1e293b" stroke-width="2"/>

  <!-- Thin grid lines -->
  <g stroke="#94a3b8" stroke-width="0.7">
    <line x1="11" y1="5" x2="11" y2="59"/>
    <line x1="17" y1="5" x2="17" y2="59"/>
    <line x1="23" y1="5" x2="23" y2="59"/>
    <line x1="29" y1="5" x2="29" y2="59"/>
    <line x1="35" y1="5" x2="35" y2="59"/>
    <line x1="41" y1="5" x2="41" y2="59"/>
    <line x1="47" y1="5" x2="47" y2="59"/>
    <line x1="53" y1="5" x2="53" y2="59"/>

    <line x1="5" y1="11" x2="59" y2="11"/>
    <line x1="5" y1="17" x2="59" y2="17"/>
    <line x1="5" y1="23" x2="59" y2="23"/>
    <line x1="5" y1="29" x2="59" y2="29"/>
    <line x1="5" y1="35" x2="59" y2="35"/>
    <line x1="5" y1="41" x2="59" y2="41"/>
    <line x1="5" y1="47" x2="59" y2="47"/>
    <line x1="5" y1="53" x2="59" y2="53"/>
  </g>

  <!-- 3x3 block lines -->
  <g stroke="#0f172a" stroke-width="1.7">
    <line x1="23" y1="5" x2="23" y2="59"/>
    <line x1="41" y1="5" x2="41" y2="59"/>
    <line x1="5" y1="23" x2="59" y2="23"/>
    <line x1="5" y1="41" x2="59" y2="41"/>
  </g>

  <!-- Clues from Expert: 1 -->
  <g fill="#0f172a" font-family="Segoe UI, Arial, sans-serif" font-size="4.2" text-anchor="middle" dominant-baseline="middle">
    <text x="8" y="8">1</text>
    <text x="56" y="8">3</text>

    <text x="20" y="14">4</text>
    <text x="32" y="14">8</text>
    <text x="44" y="14">1</text>

    <text x="14" y="20">8</text>
    <text x="26" y="20">4</text>
    <text x="32" y="20">1</text>
    <text x="44" y="20">2</text>

    <text x="20" y="26">2</text>
    <text x="26" y="26">6</text>
    <text x="38" y="26">9</text>
    <text x="44" y="26">4</text>

    <text x="14" y="32">5</text>
    <text x="50" y="32">3</text>

    <text x="20" y="38">1</text>
    <text x="26" y="38">7</text>
    <text x="38" y="38">5</text>
    <text x="44" y="38">9</text>

    <text x="14" y="44">9</text>
    <text x="26" y="44">1</text>
    <text x="38" y="44">2</text>
    <text x="50" y="44">8</text>

    <text x="20" y="50">8</text>
    <text x="32" y="50">9</text>
    <text x="44" y="50">6</text>

    <text x="8" y="56">5</text>
    <text x="56" y="56">9</text>
  </g>
</svg>
